<?xml version="1.0" encoding="UTF-8" standalone="no"?>
<!-- Generated by IcoMoon.io -->

<svg
   xmlns:dc="http://purl.org/dc/elements/1.1/"
   xmlns:cc="http://creativecommons.org/ns#"
   xmlns:rdf="http://www.w3.org/1999/02/22-rdf-syntax-ns#"
   xmlns:svg="http://www.w3.org/2000/svg"
   xmlns="http://www.w3.org/2000/svg"
   xmlns:sodipodi="http://sodipodi.sourceforge.net/DTD/sodipodi-0.dtd"
   xmlns:inkscape="http://www.inkscape.org/namespaces/inkscape"
   version="1.1"
   width="24"
   height="24"
   viewBox="0 0 24 24"
   id="svg2"
   inkscape:version="0.48.5 r10040"
   sodipodi:docname="check.svg"
   inkscape:export-filename="/Users/tonybutler/Pictures/check.png"
   inkscape:export-xdpi="90"
   inkscape:export-ydpi="90">
  <metadata
     id="metadata11">
    <rdf:RDF>
      <cc:Work
         rdf:about="">
        <dc:format>image/svg+xml</dc:format>
        <dc:type
           rdf:resource="http://purl.org/dc/dcmitype/StillImage" />
        <dc:title></dc:title>
      </cc:Work>
    </rdf:RDF>
  </metadata>
  <defs
     id="defs9">
    <filter
       inkscape:label="Desaturate"
       x="0"
       y="0"
       width="1"
       height="1"
       inkscape:menu="Color"
       inkscape:menu-tooltip="Render in shades of gray by reducing saturation to zero"
       color-interpolation-filters="sRGB"
       id="filter3779">
      <feColorMatrix
         type="saturate"
         values="0"
         id="feColorMatrix3781" />
    </filter>
    <filter
       inkscape:label="Desaturate"
       x="0"
       y="0"
       width="1"
       height="1"
       inkscape:menu="Color"
       inkscape:menu-tooltip="Render in shades of gray by reducing saturation to zero"
       color-interpolation-filters="sRGB"
       id="filter3783">
      <feColorMatrix
         type="saturate"
         values="0"
         id="feColorMatrix3785" />
    </filter>
  </defs>
  <sodipodi:namedview
     pagecolor="#ffffff"
     bordercolor="#666666"
     borderopacity="1"
     objecttolerance="10"
     gridtolerance="10"
     guidetolerance="10"
     inkscape:pageopacity="0"
     inkscape:pageshadow="2"
     inkscape:window-width="1440"
     inkscape:window-height="807"
     id="namedview7"
     showgrid="false"
     inkscape:zoom="13.906433"
     inkscape:cx="9.4709151"
     inkscape:cy="5.9169335"
     inkscape:window-x="0"
     inkscape:window-y="0"
     inkscape:window-maximized="1"
     inkscape:current-layer="svg2" />
  <g
     id="icomoon-ignore"
     style="fill:#f98012;fill-opacity:1;stroke:#f98012;stroke-opacity:1;filter:url(#filter3779)"
     transform="matrix(0.0322253,0,0,0.0322253,344.87184,-398.91864)" />
  <path
     d="m 19.96198,13.35346 v 4.39186 q 0,1.64349 -1.167,2.81053 -1.16701,1.16704 -2.81053,1.16704 H 4.49381 q -1.64349,0 -2.81053,-1.16704 Q 0.51624,19.38881 0.51624,17.74532 V 6.25468 q 0,-1.64349 1.16704,-2.81053 1.16704,-1.16704 2.81053,-1.16704 h 11.49064 q 0.87008,0 1.61587,0.3453 0.20715,0.0967 0.24859,0.31764 0.0414,0.23476 -0.1243,0.4005 l -0.67673,0.67673 q -0.13811,0.13808 -0.31764,0.13808 -0.0414,0 -0.12429,-0.0276 -0.31765,-0.0829 -0.6215,-0.0829 H 4.49381 q -0.91149,0 -1.56061,0.64912 -0.64911,0.64911 -0.64911,1.5606 v 11.49064 q 0,0.91149 0.64911,1.56061 0.64912,0.64911 1.56061,0.64911 h 11.49064 q 0.91149,0 1.5606,-0.64911 0.64912,-0.64912 0.64912,-1.56061 v -3.50795 q 0,-0.17956 0.12429,-0.30382 l 0.88388,-0.88387 q 0.13808,-0.13812 0.31764,-0.13812 0.0829,0 0.16574,0.0414 0.27623,0.11047 0.27623,0.4005 z M 23.15229,6.59994 11.91027,17.84196 q -0.33144,0.33147 -0.7872,0.33147 -0.45576,0 -0.7872,-0.33147 L 4.3972,11.90329 q -0.33144,-0.33147 -0.33144,-0.7872 0,-0.45573 0.33144,-0.7872 L 5.9164,8.8097 q 0.33147,-0.33147 0.7872,-0.33147 0.45573,0 0.78719,0.33147 l 3.63228,3.63224 8.93562,-8.93559 q 0.33147,-0.33144 0.7872,-0.33144 0.45573,0 0.7872,0.33144 l 1.5192,1.51919 q 0.33147,0.33144 0.33147,0.7872 0,0.45577 -0.33147,0.7872 z"
     id="path5"
     style="fill:#f98012;fill-opacity:1;stroke:#f98012;stroke-width:0.03222530000000000;stroke-opacity:1;filter:url(#filter3783)"
     inkscape:connector-curvature="0" />
</svg>
