<?xml version="1.0" encoding="UTF-8" standalone="no"?>
<!-- Generated by IcoMoon.io -->

<svg
   xmlns:dc="http://purl.org/dc/elements/1.1/"
   xmlns:cc="http://creativecommons.org/ns#"
   xmlns:rdf="http://www.w3.org/1999/02/22-rdf-syntax-ns#"
   xmlns:svg="http://www.w3.org/2000/svg"
   xmlns="http://www.w3.org/2000/svg"
   xmlns:sodipodi="http://sodipodi.sourceforge.net/DTD/sodipodi-0.dtd"
   xmlns:inkscape="http://www.inkscape.org/namespaces/inkscape"
   version="1.1"
   width="24"
   height="24"
   viewBox="0 0 24 24"
   id="svg3034"
   inkscape:version="0.48.5 r10040"
   sodipodi:docname="plus-circle.svg">
  <metadata
     id="metadata3043">
    <rdf:RDF>
      <cc:Work
         rdf:about="">
        <dc:format>image/svg+xml</dc:format>
        <dc:type
           rdf:resource="http://purl.org/dc/dcmitype/StillImage" />
        <dc:title></dc:title>
      </cc:Work>
    </rdf:RDF>
  </metadata>
  <defs
     id="defs3041" />
  <sodipodi:namedview
     pagecolor="#ffffff"
     bordercolor="#666666"
     borderopacity="1"
     objecttolerance="10"
     gridtolerance="10"
     guidetolerance="10"
     inkscape:pageopacity="0"
     inkscape:pageshadow="2"
     inkscape:window-width="1440"
     inkscape:window-height="807"
     id="namedview3039"
     showgrid="false"
     inkscape:zoom="14.607633"
     inkscape:cx="9.6555355"
     inkscape:cy="7.8015407"
     inkscape:window-x="0"
     inkscape:window-y="0"
     inkscape:window-maximized="1"
     inkscape:current-layer="svg3034" />
  <g
     id="icomoon-ignore"
     style="fill:#f98012;fill-opacity:1"
     transform="matrix(0.03493922,0,0,0.03493922,317.643,-373.41666)" />
  <path
     d="m 18.70833,12.95831 v -1.91666 q 0,-0.38933 -0.28451,-0.67384 -0.28451,-0.28451 -0.6738,-0.28451 H 13.91666 V 6.24998 q 0,-0.38933 -0.28451,-0.67384 -0.28451,-0.28451 -0.67384,-0.28451 h -1.91666 q -0.38933,0 -0.67384,0.28451 Q 10.0833,5.86065 10.0833,6.24998 V 10.0833 H 6.24998 q -0.38933,0 -0.6738,0.28451 -0.28448,0.28451 -0.28451,0.67384 v 1.91666 q 0,0.38933 0.28451,0.67381 0.28451,0.28447 0.6738,0.28451 h 3.83332 v 3.83335 q 0,0.38933 0.28451,0.67381 0.28451,0.28447 0.67384,0.28451 h 1.91666 q 0.38933,0 0.67384,-0.28451 0.28451,-0.28451 0.28451,-0.67381 v -3.83335 h 3.83336 q 0.38933,0 0.6738,-0.28451 0.28448,-0.28451 0.28451,-0.67381 z M 23.5,12 q 0,3.12958 -1.54232,5.77248 -1.54232,2.64291 -4.18523,4.1852 Q 15.12954,23.49996 12,23.5 8.87046,23.50003 6.22752,21.95768 3.58457,20.41532 2.04232,17.77248 0.50007,15.12965 0.5,12 0.49993,8.87035 2.04232,6.22755 3.58471,3.58475 6.22752,2.04232 8.87032,0.4999 12,0.5 q 3.12968,10e-5 5.77245,1.54232 2.64277,1.54222 4.18519,4.18523 Q 23.50007,8.87056 23.49997,12 z"
     id="path3037"
     style="fill:#f98012;fill-opacity:1"
     inkscape:connector-curvature="0" />
</svg>
