<?xml version="1.0" encoding="UTF-8" standalone="no"?>
<!-- Generated by IcoMoon.io -->

<svg
   xmlns:dc="http://purl.org/dc/elements/1.1/"
   xmlns:cc="http://creativecommons.org/ns#"
   xmlns:rdf="http://www.w3.org/1999/02/22-rdf-syntax-ns#"
   xmlns:svg="http://www.w3.org/2000/svg"
   xmlns="http://www.w3.org/2000/svg"
   xmlns:sodipodi="http://sodipodi.sourceforge.net/DTD/sodipodi-0.dtd"
   xmlns:inkscape="http://www.inkscape.org/namespaces/inkscape"
   version="1.1"
   width="24"
   height="24"
   viewBox="0 0 24 24"
   id="svg2"
   inkscape:version="0.48.5 r10040"
   sodipodi:docname="star-o.svg">
  <metadata
     id="metadata11">
    <rdf:RDF>
      <cc:Work
         rdf:about="">
        <dc:format>image/svg+xml</dc:format>
        <dc:type
           rdf:resource="http://purl.org/dc/dcmitype/StillImage" />
        <dc:title></dc:title>
      </cc:Work>
    </rdf:RDF>
  </metadata>
  <defs
     id="defs9">
    <filter
       inkscape:label="Desaturate"
       x="0"
       y="0"
       width="1"
       height="1"
       inkscape:menu="Color"
       inkscape:menu-tooltip="Render in shades of gray by reducing saturation to zero"
       color-interpolation-filters="sRGB"
       id="filter3764">
      <feColorMatrix
         type="saturate"
         values="0"
         id="feColorMatrix3766" />
    </filter>
    <filter
       inkscape:label="Desaturate"
       x="0"
       y="0"
       width="1"
       height="1"
       inkscape:menu="Color"
       inkscape:menu-tooltip="Render in shades of gray by reducing saturation to zero"
       color-interpolation-filters="sRGB"
       id="filter3768">
      <feColorMatrix
         type="saturate"
         values="0"
         id="feColorMatrix3770" />
    </filter>
  </defs>
  <sodipodi:namedview
     pagecolor="#ffffff"
     bordercolor="#666666"
     borderopacity="1"
     objecttolerance="10"
     gridtolerance="10"
     guidetolerance="10"
     inkscape:pageopacity="0"
     inkscape:pageshadow="2"
     inkscape:window-width="1440"
     inkscape:window-height="807"
     id="namedview7"
     showgrid="false"
     inkscape:zoom="19.666667"
     inkscape:cx="15.086414"
     inkscape:cy="10.428074"
     inkscape:window-x="0"
     inkscape:window-y="0"
     inkscape:window-maximized="1"
     inkscape:current-layer="svg2" />
  <g
     id="icomoon-ignore"
     style="fill:#f98012;fill-opacity:1;filter:url(#filter3764)"
     transform="matrix(0.03225199,0,0,0.03225199,345.07087,-401.6243)" />
  <path
     d="M 487.286,430.286 618.429,303 437.572,276.428 l -81,-163.715 -81,163.715 L 94.715,303 l 131.143,127.285 -31.285,180.428 162,-85.286 161.572,85.285 z m 225.857,-153 q 0,9.428 -11.143,20.572 l -155.572,151.714 36.857,214.286 q 0.428,3 0.428,8.572 0,21.428 -17.572,21.428 -8.143,0 -17.143,-5.143 L 356.57,587.572 164.142,688.715 q -9.428,5.143 -17.143,5.143 -9,0 -13.5,-6.214 -4.5,-6.214 -4.5,-15.214 0,-2.572 0.857,-8.572 l 36.857,-214.286 -156,-151.714 q -10.714,-11.572 -10.714,-20.572 0,-15.857 24,-19.714 l 215.143,-31.286 96.428,-195 q 8.143,-17.572 21,-17.572 12.857,0 21,17.572 l 96.428,195 215.143,31.286 q 24,3.857 24,19.714 z"
     id="path5"
     style="fill:#f98012;fill-opacity:1;filter:url(#filter3768)"
     inkscape:connector-curvature="0"
     transform="matrix(0.03225199,0,0,0.03225199,0.49987567,0.58969747)" />
</svg>
