<?xml version="1.0" encoding="UTF-8" standalone="no"?>
<!-- Generated by IcoMoon.io -->

<svg
   xmlns:dc="http://purl.org/dc/elements/1.1/"
   xmlns:cc="http://creativecommons.org/ns#"
   xmlns:rdf="http://www.w3.org/1999/02/22-rdf-syntax-ns#"
   xmlns:svg="http://www.w3.org/2000/svg"
   xmlns="http://www.w3.org/2000/svg"
   xmlns:sodipodi="http://sodipodi.sourceforge.net/DTD/sodipodi-0.dtd"
   xmlns:inkscape="http://www.inkscape.org/namespaces/inkscape"
   version="1.1"
   width="24"
   height="24"
   viewBox="0 0 24 24"
   id="svg2"
   inkscape:version="0.48.5 r10040"
   sodipodi:docname="thumbs-up.svg">
  <metadata
     id="metadata11">
    <rdf:RDF>
      <cc:Work
         rdf:about="">
        <dc:format>image/svg+xml</dc:format>
        <dc:type
           rdf:resource="http://purl.org/dc/dcmitype/StillImage" />
        <dc:title></dc:title>
      </cc:Work>
    </rdf:RDF>
  </metadata>
  <defs
     id="defs9" />
  <sodipodi:namedview
     pagecolor="#ffffff"
     bordercolor="#666666"
     borderopacity="1"
     objecttolerance="10"
     gridtolerance="10"
     guidetolerance="10"
     inkscape:pageopacity="0"
     inkscape:pageshadow="2"
     inkscape:window-width="1440"
     inkscape:window-height="807"
     id="namedview7"
     showgrid="false"
     inkscape:zoom="19.666667"
     inkscape:cx="9.4633274"
     inkscape:cy="12.725644"
     inkscape:window-x="0"
     inkscape:window-y="0"
     inkscape:window-maximized="1"
     inkscape:current-layer="svg2" />
  <g
     id="icomoon-ignore"
     style="fill:#f98012;fill-opacity:1"
     transform="matrix(0.0335417,0,0,0.0335417,331.35796,-372.87856)" />
  <path
     d="m 4.18001,18.43996 q 0,-0.37376 -0.27313,-0.64686 -0.27313,-0.27309 -0.64689,-0.27313 -0.38814,0 -0.65406,0.27313 -0.26592,0.27314 -0.26592,0.64686 0,0.38814 0.26592,0.65406 0.26592,0.26592 0.65406,0.26592 0.37376,0 0.64689,-0.26592 0.27313,-0.26592 0.27313,-0.65406 z m 2.29998,-7.35999 v 9.20002 q 0,0.37375 -0.27313,0.64685 -0.27313,0.2731 -0.64688,0.27313 H 1.41999 q -0.37375,0 -0.64685,-0.27313 -0.27309,-0.27313 -0.27313,-0.64685 v -9.20002 q 0,-0.37376 0.27313,-0.64689 0.27313,-0.27313 0.64685,-0.27313 h 4.13999 q 0.37375,0 0.64688,0.27313 0.27313,0.27313 0.27313,0.64689 z m 17.02,0 q 0,1.23624 -0.79064,2.14187 0.21561,0.6325 0.21561,1.09252 0.0431,1.09252 -0.61811,1.9694 0.24438,0.805 0,1.68188 -0.21561,0.81936 -0.77626,1.35123 0.12937,1.61 -0.70437,2.6019 -0.91998,1.09252 -2.83186,1.12123 h -1.85439 q -0.94873,0 -2.07002,-0.22282 -1.1213,-0.22282 -1.74659,-0.41685 -0.62528,-0.19404 -1.73219,-0.5678 Q 8.82305,21.21443 8.31992,21.20004 7.94617,21.18564 7.67307,20.91973 7.39998,20.65378 7.39994,20.28002 v -9.21441 q 0,-0.35936 0.25878,-0.62532 Q 7.91749,10.17434 8.27682,10.1456 8.62183,10.1168 9.36934,9.29746 10.11685,8.47807 10.82123,7.55809 11.79874,6.30745 12.27312,5.83311 12.53186,5.57433 12.71875,5.14309 12.90565,4.71184 12.97031,4.44592 13.03501,4.18 13.16439,3.57625 13.26501,3.0156 13.34407,2.69937 13.42317,2.38314 13.62438,1.95186 13.82563,1.52058 14.11315,1.23313 14.38628,0.96 14.76003,0.96 q 0.66128,0 1.18594,0.15094 0.52466,0.15094 0.86252,0.37375 0.33787,0.22282 0.57501,0.58219 0.23714,0.35936 0.34501,0.64688 0.10787,0.28752 0.1725,0.71873 0.0646,0.43122 0.0719,0.64689 0.007,0.21567 0.007,0.56061 0,0.54626 -0.13658,1.09252 -0.13658,0.54626 -0.27313,0.86253 -0.13655,0.31626 -0.39532,0.805 -0.0431,0.0863 -0.14376,0.25874 -0.10063,0.17247 -0.15812,0.31623 -0.0575,0.14376 -0.11498,0.34498 h 3.98187 q 1.12123,0 1.94062,0.81936 0.81939,0.81935 0.81936,1.94062 z"
     id="path5"
     style="fill:#f98012;fill-opacity:1"
     inkscape:connector-curvature="0" />
</svg>
